<svg viewBox="0 0 205.91 172.91" xmlns="http://www.w3.org/2000/svg"><path d="m3.97 3.97v82.49 82.48h197.97v-82.48-82.49z" fill="#fcbf00"/><path d="m201.94 4v165h-197.94v-165h198m4-4h-206v172.91h205.91v-172.91z" fill="#fff"/><path d="m3.97 86.46h197.97v82.49h-197.97z" fill="#fff"/><path d="m3.97 3.97h197.97v82.49h-197.97z" fill="#0a174c"/><path d="m146.44 53.28 4.82-24.75h-8.4l-6.36 32.98 15.32.02 1.53-8.25z" fill="#fff"/><path d="m171.1 35.83a16 16 0 0 1 4.56.75l1.43-7.6a35.84 35.84 0 0 0 -5.71-.47c-9.12 0-13.4 5.43-13.4 11.52 0 8 8.11 7.88 8.11 11.28 0 1.7-1.2 2.64-3.78 2.64a18.59 18.59 0 0 1 -5.76-1l-1.55 8.17a36.23 36.23 0 0 0 6.49.58c8.15 0 13.86-5.43 13.86-12 0-7.75-8.15-7.89-8.15-11.29 0-1.51 1-2.59 3.91-2.59" fill="#fff"/><path d="m129.89 28.53c-12.53 0-20.57 9.38-20.57 20.89 0 7.21 3.79 12.18 13.36 12.18a28.76 28.76 0 0 0 11-2.07l3.08-15.93h-8.41l-1.81 9.71a9.76 9.76 0 0 1 -2.31.24c-4.2 0-5.73-2.32-5.73-5.4 0-5.73 3.52-11.66 10.68-11.66a21.63 21.63 0 0 1 6.19 1l.62.2a11.35 11.35 0 0 1 1.75.74l1.71-8.62a38.05 38.05 0 0 0 -9.53-1.27" fill="#fff"/><path d="m67 28.63-2.26 11h15.52c-12.9 19.05-38.49 15.81-45.26 7.89-5.82-6.83-.79-18.52 16.48-25.72-17.09 5.2-26.69 18.87-21 28.06 6.39 10.43 26.31 14.78 44 9.72 11.84-4.16 16.89-10 18.73-13.13l-2.92 15.15h11.63l6.31-33z" fill="#fcbf00"/><g fill="#0a174c"><path d="m201.54 4.37v164.17h-197.17v-164.17zm.4-.4h-197.94v165h198v-164.97z"/><path d="m37.62 136.55c-6.65 0-8.79-4.39-8.79-9.13 0-6 3.15-10.28 9.52-10.28a14.69 14.69 0 0 1 4.06.56l-.51 3.38a10.35 10.35 0 0 0 -3.72-.67c-3.58 0-5.32 2.67-5.32 6.39 0 4.12 1.72 6.43 5.55 6.43a9.14 9.14 0 0 0 3.61-.79l.56 3.24a14.28 14.28 0 0 1 -4.96.87z"/><path d="m47.48 136.61a11.84 11.84 0 0 1 -3.13-.37l.26-3a7.73 7.73 0 0 0 3 .56c1.35 0 2.25-.59 2.25-1.52 0-2.48-5.69-1-5.69-5.78 0-2.48 1.89-4.48 5.94-4.48a13.72 13.72 0 0 1 2.54.28l-.17 2.82a9.39 9.39 0 0 0 -2.54-.36c-1.4 0-2 .56-2 1.43 0 2.37 5.77 1.19 5.77 5.78-.06 2.78-2.51 4.64-6.23 4.64z"/><path d="m62 136.61c-4 0-6.57-2.06-6.57-7 0-4.37 2.9-7.53 7.16-7.53 4 0 6.57 2.2 6.57 7-.03 4.38-3.02 7.53-7.16 7.53zm.34-11.52c-1.61 0-3.19 1.24-3.19 4.11s1.07 4.34 3.13 4.34c1.78 0 3.16-1.44 3.16-4.29s-1.02-4.16-3.13-4.16z"/><path d="m88.21 136.33v-8.85c0-1.49-.34-2.42-1.67-2.42-1.57 0-3.21 1.83-3.21 4.56v6.71h-3.55v-8.88c0-1.38-.28-2.39-1.66-2.39-1.66 0-3.22 1.94-3.22 4.56v6.71h-3.6v-14h3.41a21 21 0 0 1 -.17 2.51 5 5 0 0 1 4.65-2.84 3.61 3.61 0 0 1 3.86 2.79 5 5 0 0 1 4.56-2.79c2.71 0 4.2 1.49 4.2 4.65v9.64z"/><path d="m102.49 136.33a15.08 15.08 0 0 1 .15-2.37 4.76 4.76 0 0 1 -4.48 2.68 3.78 3.78 0 0 1 -4-4c0-3.33 3.19-4.88 8.09-4.88v-.5c0-1.69-.65-2.46-2.51-2.46a12.07 12.07 0 0 0 -4.22 1l-.6-2.76a15.27 15.27 0 0 1 5.3-1c4.34 0 5.64 1.81 5.64 4.93v5.78c0 1.13 0 2.45.11 3.61zm-.28-6.23c-3.63 0-4.62.9-4.62 2.12a1.6 1.6 0 0 0 1.69 1.63 3.2 3.2 0 0 0 2.93-3.38z"/><path d="m114.08 143.4c-3.72 0-6-1.43-6-4.17a4.15 4.15 0 0 1 2.17-3.44 2.32 2.32 0 0 1 -1.38-2.14 2.81 2.81 0 0 1 1.67-2.51 4.07 4.07 0 0 1 -2.09-3.83c0-2.82 2.09-5.3 6.17-5.3a8.68 8.68 0 0 1 2.29.31h4.76v2.82h-1.92a2.38 2.38 0 0 1 .71 1.78c0 3-2 5-6 5a5.2 5.2 0 0 1 -1.1-.11 1 1 0 0 0 -.67.9c0 .65.53.82 2.17.87l2.17.09c3 .11 4.76 1.41 4.76 4.11-.02 3.06-3.06 5.62-7.71 5.62zm1.91-6.9-2.42-.09h-.65a2.77 2.77 0 0 0 -1.3 2.15c0 1.29 1.19 2.08 3 2.08 2.34 0 3.58-1 3.58-2.34-.01-1.01-.66-1.75-2.2-1.8zm-1.52-11.87a2.38 2.38 0 0 0 -2.59 2.46 2.57 2.57 0 1 0 2.59-2.46z"/><path d="m129.17 129.82c-.71 0-1.33-.06-1.33-.06v6.57h-3.66v-19s2.62-.12 5.32-.12c4.65 0 7.22 2.12 7.22 5.87s-2.65 6.74-7.55 6.74zm.08-9.61c-.7 0-1.41 0-1.41 0v6.39a8.39 8.39 0 0 0 1.55.15c2.34 0 3.52-1.27 3.52-3.36s-1.1-3.18-3.66-3.18z"/><path d="m144.16 136.61c-4 0-6.57-2.06-6.57-7 0-4.37 2.9-7.53 7.16-7.53 4 0 6.57 2.2 6.57 7 0 4.38-2.99 7.53-7.16 7.53zm.34-11.52c-1.61 0-3.19 1.24-3.19 4.11s1.07 4.34 3.13 4.34c1.78 0 3.16-1.44 3.16-4.29s-.99-4.16-3.1-4.16z"/><path d="m162.08 136.33v-9c0-1.44-.39-2.31-1.74-2.31-1.81 0-3.25 2-3.25 4.51v6.76h-3.6v-14h3.41a15.88 15.88 0 0 1 -.2 2.51 5.14 5.14 0 0 1 4.76-2.79c3.16 0 4.17 2 4.17 4.45v9.84z"/><path d="m174.05 136.61c-3.1 0-4.06-1.13-4.06-4.39v-7.11h-2.42v-2.79h2.43v-4.32l3.58-1v5.27h3.42v2.79h-3.41v6.15c0 1.8.42 2.31 1.66 2.31a5.72 5.72 0 0 0 1.61-.2l.25 2.85a13.67 13.67 0 0 1 -3.06.44z"/></g></svg>